Coordinates
version=1
nRows=8
nColumns=63
inDegrees=yes

Units are S.I. units (second, meters, Newtons, ...)
If the header above contains a line with 'inDegrees', this indicates whether rotational values are in degrees (yes) or radians (no).

endheader
time	pelvis_tilt	pelvis_list	pelvis_rotation	pelvis_tx	pelvis_ty	pelvis_tz	hip_flexion_r	hip_adduction_r	hip_rotation_r	knee_angle_r	knee_angle_r_beta	ankle_angle_r	subtalar_angle_r	mtp_angle_r	hip_flexion_l	hip_adduction_l	hip_rotation_l	knee_angle_l	knee_angle_l_beta	ankle_angle_l	subtalar_angle_l	mtp_angle_l	L5_S1_Flex_Ext	L5_S1_Lat_Bending	L5_S1_axial_rotation	L4_L5_Flex_Ext	L4_L5_Lat_Bending	L4_L5_axial_rotation	L3_L4_Flex_Ext	L3_L4_Lat_Bending	L3_L4_axial_rotation	L2_L3_Flex_Ext	L2_L3_Lat_Bending	L2_L3_axial_rotation	L1_L2_Flex_Ext	L1_L2_Lat_Bending	L1_L2_axial_rotation	L1_T12_Flex_Ext	L1_T12_Lat_Bending	L1_T12_axial_rotation	Abs_r3	Abs_r2	Abs_r1	Abs_t1	Abs_t2	neck_flexion	neck_bending	neck_rotation	arm_flex_r	arm_add_r	arm_rot_r	elbow_flex_r	pro_sup_r	wrist_flex_r	wrist_dev_r	arm_flex_l	arm_add_l	arm_rot_l	elbow_flex_l	pro_sup_l	wrist_flex_l	wrist_dev_l
      0.01666667	     -0.37353836	      4.08519182	    -74.21836800	      0.03453902	      0.95239993	     -1.35869758	      0.45908516	      5.63855439	    -36.12278682	     20.17429573	      0.35210788	     19.42156885	    -10.74408029	      0.00000000	     29.97160871	     16.21289161	     29.36230080	     16.59092752	      0.28956631	    -18.30369235	    -18.65503732	      0.00000000	     -0.02205433	      0.42888202	     -1.70950332	     -0.04095710	      0.57041309	     -1.81634728	     -0.03623306	      1.04278374	     -1.81634728	     -0.02520589	      1.04278374	     -1.49581540	     -0.02047965	      0.87457621	     -1.38897145	     -0.01260184	      0.66433825	     -1.28212749	     -0.15753188	      4.85159918	     -9.50774460	      0.00000000	      0.00000000	    -10.65072572	      4.91754308	    -13.58268705	    -20.23591517	    -20.99883762	    -28.81318167	     49.66066753	     89.99559364	      0.00000000	      0.00000000	     -6.99221538	    -23.64848989	     19.03288741	     24.26970752	     89.99559364	      0.00000000	      0.00000000
      0.03333333	     -1.04072491	      3.17413745	    -76.67311821	      0.02947054	      0.95271760	     -1.34893287	     -1.17106293	      6.94092312	    -33.74263040	     19.61659248	      0.34237413	     18.93791846	     -9.87475204	      0.00000000	     29.89243772	     14.23803163	     24.96999089	     19.29897203	      0.33683060	    -16.48462196	    -17.10508161	      0.00000000	     -0.02480031	      0.42050744	     -1.77548197	     -0.04605666	      0.55927490	     -1.88644959	     -0.04074443	      1.02242179	     -1.88644959	     -0.02834428	      1.02242179	     -1.55354672	     -0.02302957	      0.85749878	     -1.44257910	     -0.01417090	      0.65136603	     -1.33161148	     -0.17714614	      4.75686429	     -9.87469807	      0.00000000	      0.00000000	    -12.24310217	      3.89039308	    -10.61520753	    -19.19734089	    -22.65584253	    -25.22076842	     51.63112719	     89.99559364	      0.00000000	      0.00000000	     -7.30646374	    -23.98972407	     18.91333993	     23.13317018	     89.99559364	      0.00000000	      0.00000000
      0.05000000	     -1.48817364	      2.42030317	    -78.43283090	      0.02430389	      0.95322118	     -1.33934854	     -2.70724475	      8.15700781	    -30.72633463	     18.90669618	      0.32998410	     18.14436723	    -10.99969845	      0.00000000	     30.21353546	     11.97292796	     17.26396549	     22.13682593	      0.38636050	    -13.39270572	     -9.63510952	      0.00000000	     -0.02670143	      0.36811839	     -1.84295842	     -0.04958723	      0.48959746	     -1.95814332	     -0.04386778	      0.89504306	     -1.95814332	     -0.03051706	      0.89504306	     -1.61258861	     -0.02479495	      0.75066703	     -1.49740371	     -0.01525720	      0.57021539	     -1.38221881	     -0.19072565	      4.16422887	    -10.24998183	      0.00000000	      0.00000000	    -14.15990587	      3.26446836	     -5.41822424	    -18.24982041	    -23.76796572	    -22.52120829	     53.34443190	     89.99559364	      0.00000000	      0.00000000	     -7.37564887	    -24.56744831	     18.02830389	     22.14851687	     89.99559364	      0.00000000	      0.00000000
      0.06666667	     -2.01334724	      1.92697564	    -79.72970753	      0.01982076	      0.95386951	     -1.32932691	     -4.09185305	      9.19128152	    -28.86743556	     18.23238439	      0.31821514	     17.62142715	    -11.00057981	      0.00000000	     30.63761343	      9.50999757	      9.82009703	     24.80314528	      0.43289655	    -11.06969991	     -1.89043481	      0.00000000	     -0.02760263	      0.31312813	     -1.71002071	     -0.05126084	      0.41646041	     -1.81689701	     -0.04534836	      0.76133973	     -1.81689701	     -0.03154704	      0.76133973	     -1.49626812	     -0.02563180	      0.63853088	     -1.38939183	     -0.01577214	      0.48503547	     -1.28251553	     -0.19716282	      3.54216802	     -9.51062219	      0.00000000	      0.00000000	    -15.30143060	      2.88787820	     -4.15600067	    -18.25530460	    -24.52345475	    -21.50415729	     55.06934816	     89.99559364	      0.00000000	      0.00000000	     -6.56359983	    -25.11345415	     17.63926503	     21.30711913	     89.99559364	      0.00000000	      0.00000000
      0.08333333	     -2.52390227	      1.80144517	    -80.55379138	      0.01611518	      0.95462964	     -1.31851716	     -5.08585755	     10.06297631	    -27.47084185	     17.69121737	      0.30876999	     17.07921907	    -11.10593343	      0.00000000	     30.96379954	      7.59305535	      5.09220610	     26.86212437	      0.46883251	     -9.85861293	      2.53617913	      0.00000000	     -0.02742811	      0.24301512	     -1.37028235	     -0.05093675	      0.32321011	     -1.45592500	     -0.04506165	      0.59086696	     -1.45592500	     -0.03134759	      0.59086696	     -1.19899706	     -0.02546975	      0.49555643	     -1.11335441	     -0.01567242	      0.37643042	     -1.02771176	     -0.19591627	      2.74903561	     -7.62109936	      0.00000000	      0.00000000	    -15.58382588	      3.24573735	     -5.17135048	    -19.38250899	    -24.62016964	    -22.92311579	     56.93643315	     89.99559364	      0.00000000	      0.00000000	     -5.00450667	    -25.58876353	     17.11371749	     20.93997224	     89.99559364	      0.00000000	      0.00000000
      0.10000000	     -3.09606459	      1.99673707	    -80.89955479	      0.01329311	      0.95537918	     -1.30670501	     -5.65445425	     10.80790506	    -26.95993952	     17.48216482	      0.30512134	     16.62330484	    -10.70407765	      0.00000000	     31.22652197	      6.55767117	      3.90885821	     28.28735983	      0.49370757	     -8.96720067	      3.08081337	      0.00000000	     -0.02478772	      0.16901694	     -0.98235557	     -0.04603327	      0.22479253	     -1.04375280	     -0.04072374	      0.41094780	     -1.04375280	     -0.02832988	      0.41094780	     -0.85956113	     -0.02301787	      0.34465935	     -0.79816390	     -0.01416370	      0.26180724	     -0.73676668	     -0.17705617	      1.91195346	     -5.46356699	      0.00000000	      0.00000000	    -15.54725193	      3.68512559	     -6.31935412	    -21.17632489	    -24.61493535	    -25.10260469	     59.09704236	     89.99559364	      0.00000000	      0.00000000	     -3.46886128	    -26.02740442	     16.54329918	     21.42735392	     89.99559364	      0.00000000	      0.00000000
      0.11666667	     -3.53736078	      2.39331718	    -81.06371887	      0.01049422	      0.95615996	     -1.29401972	     -5.69189351	     11.19709600	    -26.86113097	     18.12832935	      0.31639904	     16.19077719	    -10.39004680	      0.00000000	     31.36645159	      6.01964396	      4.16500069	     29.10647965	      0.50800390	     -7.72838285	      2.82999446	      0.00000000	     -0.02515234	      0.06319320	     -0.70073244	     -0.04671042	      0.08404696	     -0.74452822	     -0.04132279	      0.15364795	     -0.74452822	     -0.02874661	      0.15364795	     -0.61314089	     -0.02335647	      0.12886358	     -0.56934511	     -0.01437205	      0.09788627	     -0.52554933	     -0.17966068	      0.71485414	     -3.89726362	      0.00000000	      0.00000000	    -15.29685137	      4.19201150	     -7.59779049	    -22.63340006	    -24.60256794	    -26.99455764	     61.34839253	     89.99559364	      0.00000000	      0.00000000	     -2.72373306	    -26.69218985	     15.76007954	     22.64303000	     89.99559364	      0.00000000	      0.00000000
      0.13333333	     -4.11423656	      2.85238067	    -81.20824070	      0.00768466	      0.95704604	     -1.28089131	     -5.29684460	     11.34661202	    -27.71477132	     19.70655738	      0.34394431	     15.71064959	     -9.08618558	      0.00000000	     31.40892739	      5.98015108	      6.97958546	     29.62995308	      0.51714024	     -6.58174435	     -0.06811119	      0.00000000	     -0.02390203	     -0.04493185	     -0.63148002	     -0.04438846	     -0.05975936	     -0.67094752	     -0.03926864	     -0.10924730	     -0.67094752	     -0.02731763	     -0.10924730	     -0.55254502	     -0.02219542	     -0.09162503	     -0.51307751	     -0.01365762	     -0.06959944	     -0.47361001	     -0.17072980	     -0.50827808	     -3.51210242	      0.00000000	      0.00000000	    -14.38031511	      4.37235950	    -11.00006515	    -23.04828585	    -25.02180769	    -27.80866082	     63.36499030	     89.99559364	      0.00000000	      0.00000000	     -4.16348911	    -26.08265336	      4.51170376	     24.88510847	     89.99559364	      0.00000000	      0.00000000
